<svg xmlns="http://www.w3.org/2000/svg" version="1.1" xmlns:xlink="http://www.w3.org/1999/xlink" xmlns:svgjs="http://svgjs.dev/svgjs" width="1000" height="1000" viewBox="0 0 1000 1000"><rect width="1000" height="1000" fill="#ffffff"></rect><g transform="matrix(0.7,0,0,0.7,150,106.25)"><svg viewBox="0 0 320 360" data-background-color="#fbeaab" preserveAspectRatio="xMidYMid meet" height="1125" width="1000" xmlns="http://www.w3.org/2000/svg" xmlns:xlink="http://www.w3.org/1999/xlink"><g id="tight-bounds" transform="matrix(1,0,0,1,0,0)"><svg viewBox="0 0 320 360" height="360" width="320"><g><svg></svg></g><g><svg viewBox="0 0 320 360" height="360" width="320"><g><path xmlns="http://www.w3.org/2000/svg" d="M219.58 41.008c0.707 0 6.365 2.829 9.547 3.89-1.061 0.354-3.536-0.707-6.365-1.768 0.707 0 2.122 0.354 3.536 1.06-0.707-0.707-6.011-2.475-6.718-3.182M166.895 30.047c1.061-0.354 13.436 1.414 19.094 1.768 0.354-0.354-0.707-0.354-2.122-0.707 1.768-0.354 5.304 0.707 7.779 1.06-7.425 0.354-15.558-1.768-22.629-1.06-2.475 0-0.707-0.707-2.122-1.061M156.641 30.047c6.365 0 11.315 0 2.121 0.707-1.061-0.354-2.475-0.354-2.121-0.707M256.707 59.395c0.707 0 3.536 3.182 4.95 4.243-0.354 0.354-3.182-2.475-4.596-3.536 0.354 0.354 0 0-0.354-0.707M249.635 54.798c-2.829-2.475-3.889-2.475-4.243-3.889 2.475 1.414 4.243 2.829 4.243 3.889M204.022 32.522c0.354-0.354 1.061 0.354 2.829 0.707-2.122-0.354-1.768 0-1.061 0.707-2.475-0.354-3.182-0.707-2.475-1.414 1.414 0.707 1.768 0.354 0.707 0M103.602 36.765c0-0.354 1.414-1.061 2.475-1.414-1.061 0.707-0.707 1.061 1.061 0.353 0 0.354-2.122 1.061-3.536 1.768 0.707-0.354 1.414-1.414 0-0.707M211.094 28.986c-1.061 0.354-4.95-1.768-8.84-2.475-2.122-0.707 8.486 1.768 8.84 2.475M2.475 203.66c2.122 8.84 0.707 8.486 0 0M2.829 150.621c0.354-1.414 0.707-5.304 1.06-4.95-1.061 8.486-2.829 12.376-3.182 18.74 1.061-5.657-0.354 3.182-0.707 5.304 0.354 2.829 0.354-1.768 1.061-1.06 0.707 1.061-1.414 15.912-0.707 7.779-0.707 7.425 0 15.558 1.414 17.679-1.768 11.315 7.072 36.773 8.84 42.077 0.354 0.354 0-1.768 0.707-0.353 0.707 4.597 3.889 7.779 4.95 12.729 1.061 1.414 5.304 9.193 6.011 10.962 1.414 2.829 2.122 2.475 3.536 5.303 4.243 8.133 10.961 15.912 17.326 23.337 20.508 24.044 51.978 43.845 86.984 50.918 35.006 7.425 71.779 2.122 100.419-11.669 1.768-1.061 1.414-1.414 3.536-2.122 9.901-3.182 21.923-13.436 28.641-17.326 3.182-3.536 11.669-9.547 12.73-13.082 6.011-4.95 12.022-13.083 15.204-18.387 1.768-2.829 3.182-2.829 3.889-4.597-0.354 0 5.657-7.425 7.426-11.668-0.707 0-1.768 2.122-1.768 0 12.729-24.398 19.801-57.282 15.911-79.912 0.707 27.934-6.365 59.05-19.801 78.851-6.011 12.729-18.387 26.519-29.701 36.42-1.768 1.768-3.536 3.889-5.658 5.304-6.718 5.657-14.144 10.254-21.922 14.497-18.387 10.254-38.895 19.094-62.94 19.447 41.37-3.536 78.497-24.398 99.006-49.856-15.558 15.204-22.276 21.215-39.602 30.055-1.414 2.475-13.083 7.425-20.862 9.547 4.597-2.122 14.144-5.657 17.326-8.486-25.812 12.376-54.453 19.448-81.326 15.558 10.254 0 24.751 0.354 38.541-2.121 2.122-0.707 3.182-1.414 5.658-1.768 26.873-6.011 52.685-19.094 71.072-37.481-10.608 9.547-26.519 20.862-36.774 24.398 9.547-5.304 26.873-15.558 32.53-23.337-11.315 11.315-32.53 22.63-45.966 27.58-2.122 0.354 1.414-1.414-2.122 0-4.243 1.061-2.475 1.061-3.536 1.768-16.265 4.597-35.006 8.486-50.563 7.072-2.829-0.354-3.889-1.061-6.365-1.061-2.829-0.354-5.304-0.354-8.486-0.354-12.376-1.414-25.812-6.365-35.713-10.607-5.304-2.475-10.608-4.243-15.912-7.426-4.243-2.475-7.779-5.304-11.314-8.132-13.436-9.901-24.751-19.801-35.36-33.945-19.094-26.519-28.994-59.757-27.58-92.641 1.414-32.884 14.497-65.061 35.359-88.752-1.061 1.061 1.414-2.475 3.536-4.596 0 0.707-0.354 1.768 2.122-0.707 2.122-2.475-0.707-0.707 0.353-2.122 21.923-24.044 60.111-43.492 99.36-44.199 1.414-1.061 3.889-2.475 6.718-1.768 0 0.354-1.768 0.354-1.768 0.354 3.889-0.354 7.425-0.354 9.193 0.353 0.354-0.354-1.414-0.707 0-0.707 2.475 0.707 3.182 0 4.597 0.707-1.061 0-2.122 0-2.829 0.354 8.84 0 14.497 2.122 23.337 2.829-4.597-1.061-5.657-1.061-9.193-2.122 3.889 0.707 5.657 1.414 7.425 1.061-0.707 0-0.354-1.061 0.354-0.707 7.072 1.768 7.779 2.475 15.204 4.95 0.707-0.707-3.182-1.061-4.243-2.122 7.072 2.475 13.436 4.243 17.68 7.072-1.414-1.061-5.657-2.475-8.84-3.889-0.354 0.354 1.061 0.707 1.414 1.414-3.536-1.768-8.486-3.536-13.436-4.243 4.243 1.061 7.072 2.475 8.84 3.182-3.889-0.707-8.84-3.182-14.498-4.243 9.193 2.829 26.519 9.193 37.127 14.851-3.889-2.475-8.486-4.243-10.961-5.657 2.122 0.354 4.597 1.768 4.597 1.06 2.475 1.061 5.657 3.536 7.425 3.89-3.182-2.122-9.547-5.304-11.668-6.365 26.519 12.022 50.21 32.177 65.414 57.989 1.414 2.475 3.536 8.133 5.304 8.84-0.354-1.768-1.768-2.829-3.182-5.657 0.707 0 0.707-1.061 0-2.122-1.414-1.768 0 1.414-1.415-0.354-6.365-11.669-14.144-21.923-26.165-33.237 6.718 6.365 1.768 1.768 0.353-0.354 9.193 8.133 19.801 21.923 24.398 28.995-0.707-1.061-1.061-1.768-0.707-1.768 8.486 14.497 13.79 27.58 19.094 46.32 0.354 0.354 0-1.414 0.707-0.353 3.536 14.851 4.597 27.227 4.243 38.541 2.829-19.094-3.536-48.796-14.851-72.133-1.414-2.829-1.414-0.707-2.829-3.889 0-1.061-1.061-3.182-1.768-4.597-14.144-23.337-31.47-39.956-51.978-53.038 1.414 0.707 4.243 2.829 4.244 2.475-38.188-25.105-82.387-28.641-118.807-20.862-2.475 1.061-3.536 2.122-6.365 3.536 5.304-1.768 8.486-2.122 13.437-3.183 1.061-1.061-4.597 0.354-2.122-0.707 0.354 0.354 4.95-0.707 6.011-0.353 0 0.354-1.414 0.707-1.768 1.06 11.669-2.475 23.691-2.829 33.945-2.121-6.011 0.354-16.972-0.707-20.508 1.061 3.536-0.354 8.486-0.707 11.668-0.354-4.243 0-12.022 0.354-15.558 0.707-0.354-0.354 5.657-1.061 1.768-1.06-1.768 0.354-4.597 0.354-5.657 1.414-30.409 2.829-60.111 18.74-80.973 37.481-4.243 3.536-9.193 7.425-12.375 11.314-7.779 8.84-12.729 17.68-18.387 25.459 3.536-7.425 11.315-18.74 20.508-28.287 9.193-9.547 19.094-17.68 24.398-21.923 0 1.414 8.486-5.304 11.669-7.425-2.122 1.768 1.414-0.707 2.121-0.354 11.315-6.718 20.508-9.193 30.763-13.083-2.475 0.707-4.597 1.414-4.951 1.061 2.475-0.707 3.889-1.414 3.536-1.768-9.901 2.829-25.459 9.547-37.834 16.972 22.276-15.204 50.564-24.398 78.497-24.751 27.934-0.707 55.16 6.365 76.729 17.68 14.497 6.365 28.287 18.033 39.249 29.348 3.182 2.829 0.707-0.707 5.304 4.243-1.414-0.707-2.475-1.414-0.707 0.707 2.829 3.182-0.707-2.475 3.889 3.182-0.354 0-1.768-1.768-1.768-1.061 12.376 10.961 21.923 30.762 27.58 43.846-1.414-5.304-4.95-12.729-7.779-18.033 8.486 15.558 11.315 24.751 14.851 38.541 1.414 1.061-0.707-4.95 0.707-2.121 0.354 2.122 0.707 8.84 2.122 9.9-1.061-6.718-2.829-14.851-4.243-16.265 1.061 0.707-1.768-8.133-3.536-10.254-0.707-5.657-5.657-15.558-9.901-22.984-15.204-29.702-42.431-54.099-72.839-67.536 0-0.707-1.768-1.414-2.476-2.121-30.055-12.729-66.122-16.265-100.773-8.133-35.006 8.486-67.889 28.641-91.227 57.636 1.061-3.536 9.901-10.254 10.255-13.083-10.254 10.961-21.215 25.459-28.641 41.016-7.779 15.558-12.022 31.47-13.79 43.138" fill="#000000" fill-rule="nonzero" stroke="none" stroke-width="1" stroke-linecap="butt" stroke-linejoin="miter" stroke-miterlimit="10" stroke-dasharray="" stroke-dashoffset="0" font-family="none" font-weight="none" font-size="none" text-anchor="none" style="mix-blend-mode: normal" data-fill-palette-color="tertiary"></path></g><g transform="matrix(1,0,0,1,48,141.1363731475361)"><svg viewBox="0 0 224 77.72725370492782" height="77.72725370492782" width="224"><g><svg viewBox="0 0 365.9936700203374 126.99858412530536" height="77.72725370492782" width="224"><g transform="matrix(1,0,0,1,141.99367002033742,17.551902726435117)"><svg viewBox="0 0 224 91.89477867243512" height="91.89477867243512" width="224"><g id="textblocktransform"><svg viewBox="0 0 224 91.89477867243512" height="91.89477867243512" width="224" id="textblock"><g><svg viewBox="0 0 224 63.51124687586781" height="63.51124687586781" width="224"><g transform="matrix(1,0,0,1,0,0)"><svg width="224" viewBox="4.199999809265137 -38.349998474121094 180.02999877929688 51.04999923706055" height="63.51124687586781" data-palette-color="#454545"><path d="M8.35-36.15L8.35-36.15 24.6-36.15Q30.1-36.15 30.1-33.35L30.1-33.35Q30.1-31.65 28.6-30.9L28.6-30.9Q27-32.05 23.8-32.05L23.8-32.05 10.85-32.05 10.85-20.75 20.35-20.75Q23.45-20.75 24.75-20.23 26.05-19.7 26.05-18.35 26.05-17 24.7-16.15L24.7-16.15Q23.3-16.8 19.9-16.8L19.9-16.8 10.85-16.8 10.85-3.7Q10.85-1.85 12.2-1.3L12.2-1.3Q10.9 0.45 9 0.45L9 0.45Q5.6 0.45 5.6-3.75L5.6-3.75 5.6-31.8Q5.6-33.6 4.2-34.2L4.2-34.2Q5.6-36.15 8.35-36.15ZM50.7-20.38Q48.6-23 45.47-23 42.35-23 40.7-20.7 39.05-18.4 39.05-14.1L39.05-14.1Q39.05-7.95 41.2-5.28 43.35-2.6 46.45-2.6 49.55-2.6 51.17-4.95 52.8-7.3 52.8-11.55L52.8-11.55Q52.8-17.75 50.7-20.38ZM33.75-12.83Q33.75-19.15 37.25-22.63 40.75-26.1 45.92-26.1 51.1-26.1 54.6-22.6 58.1-19.1 58.1-12.8 58.1-6.5 54.6-3.03 51.1 0.45 45.95 0.45 40.8 0.45 37.27-3.03 33.75-6.5 33.75-12.83ZM70.15-21.85L70.15-21.85 70.15-20.85Q72.15-26.1 77-26.1L77-26.1Q79.4-26.1 80.75-24.85 82.09-23.6 82.09-21.78 82.09-19.95 81.17-18.98 80.25-18 78.75-18L78.75-18Q78.7-18 77.5-18.15L77.5-18.15Q77.65-18.9 77.65-19.78 77.65-20.65 76.97-21.33 76.3-22 74.95-22 73.59-22 72.17-20.53 70.75-19.05 70.15-15.9L70.15-15.9 70.15-3.7Q70.15-1.9 71.55-1.3L71.55-1.3Q70.25 0.45 68.34 0.45L68.34 0.45Q64.95 0.45 64.95-3.75L64.95-3.75 64.95-21.9Q64.95-23.65 63.55-24.35L63.55-24.35Q64.84-26.1 66.75-26.1L66.75-26.1Q70.15-26.1 70.15-21.85ZM92.24-34.15L92.24-34.15 92.24-15.25Q102.69-19.9 102.69-26.1L102.69-26.1Q104.84-26.1 106.17-25.1 107.49-24.1 107.49-22.45L107.49-22.45Q107.49-19.85 104.52-17.63 101.54-15.4 96.29-13.75L96.29-13.75Q101.89-7.15 104.44-5.6L104.44-5.6Q105.89-4.65 106.84-4.4 107.79-4.15 109.14-4.15L109.14-4.15Q109.14-2.1 108.12-0.83 107.09 0.45 105.29 0.45L105.29 0.45Q102.84 0.45 100.32-2.13 97.79-4.7 92.24-12.5L92.24-12.5 92.24-3.7Q92.24-1.9 93.64-1.3L93.64-1.3Q92.34 0.45 90.44 0.45L90.44 0.45Q87.04 0.45 87.04-3.75L87.04-3.75 87.04-34.2Q87.04-35.95 85.64-36.65L85.64-36.65Q86.84-38.35 88.84-38.35L88.84-38.35Q92.24-38.35 92.24-34.15ZM120.54-34.15L120.54-34.15 120.54-3.7Q120.54-1.9 121.94-1.3L121.94-1.3Q120.64 0.45 118.74 0.45L118.74 0.45Q115.34 0.45 115.34-3.75L115.34-3.75 115.34-34.2Q115.34-35.95 113.94-36.65L113.94-36.65Q115.14-38.35 117.14-38.35L117.14-38.35Q120.54-38.35 120.54-34.15ZM132.14-37.3Q133.59-37.3 134.56-36.43 135.54-35.55 135.54-34.1 135.54-32.65 134.29-31.48 133.04-30.3 131.46-30.3 129.89-30.3 128.94-31.2 127.99-32.1 127.99-33.63 127.99-35.15 129.34-36.23 130.69-37.3 132.14-37.3ZM134.54-21.85L134.54-21.85 134.54-3.7Q134.54-1.9 135.94-1.3L135.94-1.3Q134.64 0.45 132.74 0.45L132.74 0.45Q129.34 0.45 129.34-3.75L129.34-3.75 129.34-21.9Q129.34-23.65 127.94-24.35L127.94-24.35Q129.24-26.1 131.14-26.1L131.14-26.1Q134.54-26.1 134.54-21.85ZM144.49-23.55L144.79-23.55 144.79-30.15Q144.79-34.1 147.01-36.23 149.24-38.35 152.39-38.35 155.54-38.35 157.26-37.1 158.99-35.85 158.99-34.33 158.99-32.8 157.94-32.5L157.94-32.5Q156.04-34.65 153.64-34.65L153.64-34.65Q150.04-34.65 150.04-30.25L150.04-30.25 150.04-23.55 157.39-23.55Q157.69-23.15 157.69-22.6L157.69-22.6Q157.69-21.5 156.09-20.68 154.49-19.85 150.79-19.85L150.79-19.85 150.04-19.85 150.04 5.8Q150.04 9.25 148.56 10.98 147.09 12.7 144.79 12.7L144.79 12.7Q141.59 12.7 140.34 9.55L140.34 9.55Q142.84 9.55 143.81 8.45 144.79 7.35 144.79 4.75L144.79 4.75 144.79-19.9Q140.39-20.15 140.39-22.05L140.39-22.05Q140.39-23.05 141.19-23.75L141.19-23.75Q142.79-23.55 144.49-23.55L144.49-23.55ZM171.93-2.7L178.58-21.4Q178.98-22.5 178.98-23.53 178.98-24.55 178.38-25.3L178.38-25.3Q179.48-26.1 181.13-26.1 182.78-26.1 183.78-24.55L183.78-24.55Q184.23-23.8 184.23-22.78 184.23-21.75 183.73-20.45L183.73-20.45 173.58 6.25Q171.13 12.7 166.53 12.7L166.53 12.7Q164.68 12.7 163.61 11.78 162.53 10.85 162.53 9.45 162.53 8.05 163.33 7.1L163.33 7.1Q164.28 8.15 165.83 8.15L165.83 8.15Q168.13 8.15 169.18 5.05L169.18 5.05 170.83 0.45Q170.78 0.45 170.68 0.45L170.68 0.45Q169.38 0.45 168.31-0.45 167.23-1.35 166.68-3.05L166.68-3.05 160.43-21.65Q159.68-23.95 158.68-24.5L158.68-24.5Q159.98-26.1 161.68-26.1 163.38-26.1 164.28-25.15 165.18-24.2 165.73-22.15L165.73-22.15 171.93-2.7Z" opacity="1" transform="matrix(1,0,0,1,0,0)" fill="#000000" class="wordmark-text-0" data-fill-palette-color="primary" id="text-0"></path></svg></g></svg></g><g transform="matrix(1,0,0,1,0,78.50472799333518)"><svg viewBox="0 0 170.24 13.39005067909994" height="13.39005067909994" width="170.24"><g transform="matrix(1,0,0,1,0,0)"><svg width="170.24" viewBox="3.549999952316284 -38.349998474121094 493.260009765625 38.79999923706055" height="13.39005067909994" data-palette-color="#454545"><path d="M29.1-29.55L29.1-29.55Q29.1-28 28.23-27.1 27.35-26.2 26.05-26.2 24.75-26.2 23.35-26.9L23.35-26.9Q23.65-27.8 23.65-28.55L23.65-28.55Q23.65-30.25 21.85-31.68 20.05-33.1 16.82-33.1 13.6-33.1 11.65-31.78 9.7-30.45 9.7-28.4 9.7-26.35 11.23-24.85 12.75-23.35 15.03-22.35 17.3-21.35 19.95-20.08 22.6-18.8 24.88-17.57 27.15-16.35 28.68-14.4 30.2-12.45 30.2-10.1L30.2-10.1Q30.2-5.55 26.23-2.55 22.25 0.45 16.63 0.45 11 0.45 7.28-1.93 3.55-4.3 3.55-7.95L3.55-7.95Q3.55-9.7 4.63-10.78 5.7-11.85 7.38-11.85 9.05-11.85 10.2-10.55L10.2-10.55Q9.05-9.55 9.05-7.73 9.05-5.9 11.08-4.55 13.1-3.2 16.6-3.2 20.1-3.2 22.53-4.9 24.95-6.6 24.95-8.88 24.95-11.15 22.83-12.8 20.7-14.45 17.7-15.68 14.7-16.9 11.68-18.3 8.65-19.7 6.53-21.95 4.4-24.2 4.4-27.1L4.4-27.1Q4.4-31.35 8.15-34.02 11.9-36.7 17.13-36.7 22.35-36.7 25.73-34.63 29.1-32.55 29.1-29.55ZM41.2-6.5L41.2-6.5Q41.2-3.3 44.7-3.3 48.2-3.3 50.45-6.25L50.45-6.25 50.45-11.9Q45.7-11.65 43.45-10.18 41.2-8.7 41.2-6.5ZM55.7-17.75L55.7-17.75 55.7-5.05Q55.7-2.25 58.2-1.75L58.2-1.75Q56.95 0.45 54.35 0.45L54.35 0.45Q51 0.45 50.5-3.3L50.5-3.3Q47.6 0.45 42.75 0.45L42.75 0.45Q39.55 0.45 37.55-1.25 35.55-2.95 35.55-5.95L35.55-5.95Q35.55-9.65 39.35-11.93 43.15-14.2 50.45-14.4L50.45-14.4 50.45-17.9Q50.45-20.6 49.47-21.88 48.5-23.15 46.47-23.15 44.45-23.15 43.4-22.28 42.35-21.4 42.35-20.18 42.35-18.95 43.05-18.2L43.05-18.2Q41.8-17.1 40.15-17.1 38.5-17.1 37.57-17.93 36.65-18.75 36.65-20.2L36.65-20.2Q36.65-22.7 39.55-24.4 42.45-26.1 46.57-26.1 50.7-26.1 53.2-23.95 55.7-21.8 55.7-17.75ZM73.5-3.1L79.85-20.7Q80.35-22 80.35-23.18 80.35-24.35 79.65-25.2L79.65-25.2Q80.95-26.1 82.35-26.1 83.75-26.1 84.57-25.3 85.4-24.5 85.4-23.33 85.4-22.15 84.75-20.4L84.75-20.4 78.15-3.85Q77.25-1.5 76.25-0.55 75.25 0.4 73.4 0.4 71.55 0.4 70.5-0.55 69.45-1.5 68.7-3.85L68.7-3.85 62.95-21.25Q62.25-23.25 60.85-23.6L60.85-23.6Q61.05-24.7 62.02-25.4 63-26.1 64.2-26.1L64.2-26.1Q67.25-26.1 68.25-22.3L68.25-22.3 73.5-3.1ZM105.94-20.38Q103.84-23 100.72-23 97.59-23 95.94-20.7 94.29-18.4 94.29-14.1L94.29-14.1Q94.29-7.95 96.44-5.28 98.59-2.6 101.69-2.6 104.79-2.6 106.42-4.95 108.04-7.3 108.04-11.55L108.04-11.55Q108.04-17.75 105.94-20.38ZM88.99-12.83Q88.99-19.15 92.49-22.63 95.99-26.1 101.17-26.1 106.34-26.1 109.84-22.6 113.34-19.1 113.34-12.8 113.34-6.5 109.84-3.03 106.34 0.45 101.19 0.45 96.04 0.45 92.52-3.03 88.99-6.5 88.99-12.83ZM125.39-21.85L125.39-21.85 125.39-20.85Q127.39-26.1 132.24-26.1L132.24-26.1Q134.64-26.1 135.99-24.85 137.34-23.6 137.34-21.78 137.34-19.95 136.42-18.98 135.49-18 133.99-18L133.99-18Q133.94-18 132.74-18.15L132.74-18.15Q132.89-18.9 132.89-19.78 132.89-20.65 132.22-21.33 131.54-22 130.19-22 128.84-22 127.42-20.53 125.99-19.05 125.39-15.9L125.39-15.9 125.39-3.7Q125.39-1.9 126.79-1.3L126.79-1.3Q125.49 0.45 123.59 0.45L123.59 0.45Q120.19 0.45 120.19-3.75L120.19-3.75 120.19-21.9Q120.19-23.65 118.79-24.35L118.79-24.35Q120.09-26.1 121.99-26.1L121.99-26.1Q125.39-26.1 125.39-21.85ZM180.69-29.55L180.69-29.55Q180.69-28 179.81-27.1 178.94-26.2 177.64-26.2 176.34-26.2 174.94-26.9L174.94-26.9Q175.24-27.8 175.24-28.55L175.24-28.55Q175.24-30.25 173.44-31.68 171.64-33.1 168.41-33.1 165.19-33.1 163.24-31.78 161.28-30.45 161.28-28.4 161.28-26.35 162.81-24.85 164.34-23.35 166.61-22.35 168.89-21.35 171.54-20.08 174.19-18.8 176.46-17.57 178.74-16.35 180.26-14.4 181.79-12.45 181.79-10.1L181.79-10.1Q181.79-5.55 177.81-2.55 173.84 0.45 168.21 0.45 162.59 0.45 158.86-1.93 155.14-4.3 155.14-7.95L155.14-7.95Q155.14-9.7 156.21-10.78 157.28-11.85 158.96-11.85 160.64-11.85 161.78-10.55L161.78-10.55Q160.64-9.55 160.64-7.73 160.64-5.9 162.66-4.55 164.69-3.2 168.19-3.2 171.69-3.2 174.11-4.9 176.54-6.6 176.54-8.88 176.54-11.15 174.41-12.8 172.29-14.45 169.28-15.68 166.28-16.9 163.26-18.3 160.24-19.7 158.11-21.95 155.99-24.2 155.99-27.1L155.99-27.1Q155.99-31.35 159.74-34.02 163.49-36.7 168.71-36.7 173.94-36.7 177.31-34.63 180.69-32.55 180.69-29.55ZM210.78-17.35L210.78-17.35 210.78-3.7Q210.78-1.9 212.18-1.3L212.18-1.3Q210.88 0.45 208.98 0.45L208.98 0.45Q205.58 0.45 205.58-3.75L205.58-3.75 205.58-16.85Q205.58-21.7 201.33-21.7L201.33-21.7Q199.08-21.7 197.06-19.8 195.03-17.9 194.23-14.65L194.23-14.65 194.23-3.7Q194.23-1.9 195.63-1.3L195.63-1.3Q194.33 0.45 192.43 0.45L192.43 0.45Q189.03 0.45 189.03-3.75L189.03-3.75 189.03-34.2Q189.03-35.95 187.63-36.65L187.63-36.65Q188.83-38.35 190.83-38.35L190.83-38.35Q194.23-38.35 194.23-34.15L194.23-34.15 194.23-20.2Q195.53-22.9 197.93-24.5 200.33-26.1 203.53-26.1 206.73-26.1 208.76-23.9 210.78-21.7 210.78-17.35ZM223.08-6.5L223.08-6.5Q223.08-3.3 226.58-3.3 230.08-3.3 232.33-6.25L232.33-6.25 232.33-11.9Q227.58-11.65 225.33-10.18 223.08-8.7 223.08-6.5ZM237.58-17.75L237.58-17.75 237.58-5.05Q237.58-2.25 240.08-1.75L240.08-1.75Q238.83 0.45 236.23 0.45L236.23 0.45Q232.88 0.45 232.38-3.3L232.38-3.3Q229.48 0.45 224.63 0.45L224.63 0.45Q221.43 0.45 219.43-1.25 217.43-2.95 217.43-5.95L217.43-5.95Q217.43-9.65 221.23-11.93 225.03-14.2 232.33-14.4L232.33-14.4 232.33-17.9Q232.33-20.6 231.36-21.88 230.38-23.15 228.36-23.15 226.33-23.15 225.28-22.28 224.23-21.4 224.23-20.18 224.23-18.95 224.93-18.2L224.93-18.2Q223.68-17.1 222.03-17.1 220.38-17.1 219.46-17.93 218.53-18.75 218.53-20.2L218.53-20.2Q218.53-22.7 221.43-24.4 224.33-26.1 228.46-26.1 232.58-26.1 235.08-23.95 237.58-21.8 237.58-17.75ZM251.48-21.85L251.48-21.85 251.48-20.85Q253.48-26.1 258.33-26.1L258.33-26.1Q260.73-26.1 262.08-24.85 263.43-23.6 263.43-21.78 263.43-19.95 262.5-18.98 261.58-18 260.08-18L260.08-18Q260.03-18 258.83-18.15L258.83-18.15Q258.98-18.9 258.98-19.78 258.98-20.65 258.3-21.33 257.63-22 256.28-22 254.93-22 253.5-20.53 252.08-19.05 251.48-15.9L251.48-15.9 251.48-3.7Q251.48-1.9 252.88-1.3L252.88-1.3Q251.58 0.45 249.68 0.45L249.68 0.45Q246.28 0.45 246.28-3.75L246.28-3.75 246.28-21.9Q246.28-23.65 244.88-24.35L244.88-24.35Q246.18-26.1 248.08-26.1L248.08-26.1Q251.48-26.1 251.48-21.85ZM271.93-15L280.08-15.75Q282.03-15.9 282.03-18 282.03-20.1 280.9-21.48 279.78-22.85 277.73-22.85 275.68-22.85 274-20.8 272.33-18.75 271.93-15L271.93-15ZM271.78-12.35Q271.83-7.8 273.85-5.63 275.88-3.45 279.6-3.45 283.33-3.45 286.13-6.25L286.13-6.25Q286.98-5.8 286.98-4.7L286.98-4.7Q286.98-2.85 284.43-1.2 281.88 0.45 278.43 0.45L278.43 0.45Q273.03 0.45 269.73-2.78 266.43-6 266.43-11.95 266.43-17.9 270.03-22 273.63-26.1 278.58-26.1L278.58-26.1Q282.48-26.1 284.93-23.48 287.38-20.85 287.38-17.5L287.38-17.5Q287.38-15.05 286.1-13.9 284.83-12.75 281.88-12.7L281.88-12.7 271.78-12.35ZM333.97-30.15L333.97-30.15Q333.97-28.6 332.95-27.8 331.92-27 330.47-27 329.02-27 327.97-27.55L327.97-27.55Q328.02-28 328.02-28.45L328.02-28.45Q328.02-30.25 326.7-31.63 325.37-33 322.27-33L322.27-33Q317.97-33 314.8-29.13 311.62-25.25 311.62-18.28 311.62-11.3 314.65-7.8 317.67-4.3 323.02-4.3L323.02-4.3Q325.97-4.3 328.6-5.58 331.22-6.85 332.82-8.6L332.82-8.6Q334.02-8.25 334.02-6.55L334.02-6.55Q334.02-4.35 330.35-1.95 326.67 0.45 321.62 0.45L321.62 0.45Q314.62 0.45 310.3-4.38 305.97-9.2 305.97-17.63 305.97-26.05 310.8-31.3 315.62-36.55 323.12-36.55L323.12-36.55Q327.67-36.55 330.82-34.68 333.97-32.8 333.97-30.15ZM356.92-20.38Q354.82-23 351.69-23 348.57-23 346.92-20.7 345.27-18.4 345.27-14.1L345.27-14.1Q345.27-7.95 347.42-5.28 349.57-2.6 352.67-2.6 355.77-2.6 357.39-4.95 359.02-7.3 359.02-11.55L359.02-11.55Q359.02-17.75 356.92-20.38ZM339.97-12.83Q339.97-19.15 343.47-22.63 346.97-26.1 352.14-26.1 357.32-26.1 360.82-22.6 364.32-19.1 364.32-12.8 364.32-6.5 360.82-3.03 357.32 0.45 352.17 0.45 347.02 0.45 343.49-3.03 339.97-6.5 339.97-12.83ZM392.92-17.35L392.92-17.35 392.92-3.7Q392.92-1.9 394.32-1.3L394.32-1.3Q393.02 0.45 391.12 0.45L391.12 0.45Q387.72 0.45 387.72-3.75L387.72-3.75 387.72-16.85Q387.72-21.7 383.47-21.7L383.47-21.7Q381.22-21.7 379.19-19.8 377.17-17.9 376.37-14.65L376.37-14.65 376.37-3.7Q376.37-1.9 377.77-1.3L377.77-1.3Q376.47 0.45 374.57 0.45L374.57 0.45Q371.17 0.45 371.17-3.75L371.17-3.75 371.17-21.9Q371.17-23.65 369.77-24.35L369.77-24.35Q371.07-26.1 372.97-26.1L372.97-26.1Q376.37-26.1 376.37-21.85L376.37-21.85 376.37-20.2Q377.67-22.9 380.07-24.5 382.47-26.1 385.67-26.1 388.87-26.1 390.89-23.9 392.92-21.7 392.92-17.35ZM423.21-17.35L423.21-17.35 423.21-3.7Q423.21-1.9 424.61-1.3L424.61-1.3Q423.31 0.45 421.41 0.45L421.41 0.45Q418.01 0.45 418.01-3.75L418.01-3.75 418.01-16.85Q418.01-21.7 413.76-21.7L413.76-21.7Q411.51-21.7 409.49-19.8 407.46-17.9 406.66-14.65L406.66-14.65 406.66-3.7Q406.66-1.9 408.06-1.3L408.06-1.3Q406.76 0.45 404.86 0.45L404.86 0.45Q401.46 0.45 401.46-3.75L401.46-3.75 401.46-21.9Q401.46-23.65 400.06-24.35L400.06-24.35Q401.36-26.1 403.26-26.1L403.26-26.1Q406.66-26.1 406.66-21.85L406.66-21.85 406.66-20.2Q407.96-22.9 410.36-24.5 412.76-26.1 415.96-26.1 419.16-26.1 421.19-23.9 423.21-21.7 423.21-17.35ZM435.31-15L443.46-15.75Q445.41-15.9 445.41-18 445.41-20.1 444.29-21.48 443.16-22.85 441.11-22.85 439.06-22.85 437.39-20.8 435.71-18.75 435.31-15L435.31-15ZM435.16-12.35Q435.21-7.8 437.24-5.63 439.26-3.45 442.99-3.45 446.71-3.45 449.51-6.25L449.51-6.25Q450.36-5.8 450.36-4.7L450.36-4.7Q450.36-2.85 447.81-1.2 445.26 0.45 441.81 0.45L441.81 0.45Q436.41 0.45 433.11-2.78 429.81-6 429.81-11.95 429.81-17.9 433.41-22 437.01-26.1 441.96-26.1L441.96-26.1Q445.86-26.1 448.31-23.48 450.76-20.85 450.76-17.5L450.76-17.5Q450.76-15.05 449.49-13.9 448.21-12.75 445.26-12.7L445.26-12.7 435.16-12.35ZM475.31-20.95L475.31-20.95Q475.31-19.55 474.46-18.78 473.61-18 472.33-18 471.06-18 470.21-18.6L470.21-18.6Q470.36-19.1 470.36-20.13 470.36-21.15 469.53-21.95 468.71-22.75 467.06-22.75L467.06-22.75Q464.36-22.75 462.23-20 460.11-17.25 460.11-12.73 460.11-8.2 462.18-5.9 464.26-3.6 467.36-3.6L467.36-3.6Q471.56-3.6 474.31-6.35L474.31-6.35Q475.06-5.95 475.06-4.75L475.06-4.75Q475.06-2.85 472.48-1.2 469.91 0.45 466.51 0.45L466.51 0.45Q461.51 0.45 458.21-2.8 454.91-6.05 454.91-11.95 454.91-17.85 458.66-21.98 462.41-26.1 467.96-26.1L467.96-26.1Q471.16-26.1 473.23-24.63 475.31-23.15 475.31-20.95ZM487.81-21.95L487.21-21.95 487.21-6.8Q487.21-5 487.88-4.23 488.56-3.45 490.11-3.45L490.11-3.45Q493.16-3.45 495.71-6L495.71-6Q496.81-5.8 496.81-4.2 496.81-2.6 494.53-1.07 492.26 0.45 488.93 0.45 485.61 0.45 483.78-1.28 481.96-3 481.96-6.4L481.96-6.4 481.96-21.95Q479.91-22 478.96-22.63 478.01-23.25 478.01-24.25 478.01-25.25 478.76-25.8L478.76-25.8Q480.16-25.6 481.41-25.6L481.41-25.6 481.96-25.6 481.96-28.9Q481.96-30.7 480.56-31.3L480.56-31.3Q481.76-33.05 483.71-33.05L483.71-33.05Q487.21-33.05 487.21-28.85L487.21-28.85 487.21-25.6 495.31-25.6Q495.61-25.15 495.61-24.7L495.61-24.7Q495.61-21.95 487.81-21.95L487.81-21.95Z" opacity="1" transform="matrix(1,0,0,1,0,0)" fill="#000000" class="slogan-text-1" data-fill-palette-color="secondary" id="text-1"></path></svg></g></svg></g></svg></g></svg></g><g><svg viewBox="0 0 127.00018890287004 126.99858412530536" height="126.99858412530536" width="127.00018890287004"><g><svg xmlns="http://www.w3.org/2000/svg" xmlns:xlink="http://www.w3.org/1999/xlink" version="1.1" x="0" y="0" viewBox="0 0 32.000404357910156 32" enable-background="new 0 0 32 32" xml:space="preserve" width="127.00018890287004" height="126.99858412530536" class="icon-icon-0" data-fill-palette-color="accent" id="icon-0"><g fill="#454545" data-fill-palette-color="accent"><path fill="#000000" d="M29.5 21h-2.691c-0.045-0.239-0.1-0.473-0.16-0.706l4.799-2.399c0.494-0.247 0.693-0.848 0.447-1.342-0.248-0.494-0.846-0.692-1.342-0.447l-4.578 2.288C24.229 14.626 20.42 12 16 12c-5.382 0-9.865 3.888-10.809 9H2.5C1.122 21 0 22.121 0 23.5c0 0.49 0.18 0.963 0.505 1.329L4 28.761V29.5C4 30.879 5.122 32 6.5 32h19c1.379 0 2.5-1.121 2.5-2.5v-0.739l3.494-3.932C31.82 24.463 32 23.99 32 23.5 32 22.121 30.879 21 29.5 21zM25.799 21h-0.562l0.498-0.25C25.754 20.834 25.781 20.915 25.799 21zM16 13c4.029 0 7.5 2.4 9.082 5.841l-0.891 0.445C22.775 16.171 19.645 14 16 14c-4.282 0-7.859 2.993-8.77 7H6.202C7.131 16.441 11.171 13 16 13zM20.576 21c-0.773-1.763-2.531-3-4.576-3s-3.802 1.237-4.576 3H10.35c0.826-2.326 3.043-4 5.65-4 2.465 0 4.588 1.496 5.508 3.627L20.764 21H20.576zM16 20c-0.883 0-1.67 0.391-2.22 1h-1.224c0.694-1.189 1.97-2 3.444-2 1.473 0 2.75 0.811 3.443 2h-1.225C17.67 20.391 16.883 20 16 20zM16 16c-3.165 0-5.842 2.112-6.705 5H8.263c0.892-3.444 4.017-6 7.737-6 3.246 0 6.043 1.948 7.295 4.734l-0.893 0.446C21.314 17.723 18.855 16 16 16zM26 28v1.5c0 0.276-0.225 0.5-0.5 0.5h-19C6.224 30 6 29.776 6 29.5V28l-4-4.5C2 23.224 2.224 23 2.5 23H5h1 1 1 1 1 1 1 1 6 1 1 1 1 1 1 1 1 2.5c0.275 0 0.5 0.224 0.5 0.5L26 28z" data-fill-palette-color="accent"></path><path fill="#000000" d="M7.977 11.712c0.003 0.006 0.005 0.012 0.008 0.018 0 0 0.001 0 0.002 0C8.07 11.89 8.236 12 8.43 12c0.277 0 0.502-0.226 0.502-0.503 0-0.043-0.007-0.085-0.018-0.125 0.002-0.007 0.002-0.013 0-0.02-0.375-0.882-0.019-1.85 0.419-2.892 0.473-1.126 0.98-2.376 0.422-3.647C9.684 4.63 9.507 4.5 9.299 4.5c-0.271 0-0.49 0.22-0.49 0.49 0 0.06 0.012 0.116 0.032 0.169 0 0.002 0 0.004 0.001 0.006 0.001 0.003 0.002 0.006 0.003 0.009C8.847 5.178 8.848 5.182 8.85 5.186c0.404 0.909 0.013 1.841-0.428 2.893C7.956 9.188 7.44 10.417 7.959 11.67 7.965 11.685 7.97 11.698 7.977 11.712z" data-fill-palette-color="accent"></path><path fill="#000000" d="M20.154 11.566c0.004 0.006 0.006 0.012 0.008 0.018h0.002c0.084 0.16 0.25 0.271 0.443 0.271 0.277 0 0.504-0.226 0.504-0.503 0-0.043-0.008-0.085-0.018-0.125 0.002-0.007 0.002-0.013-0.002-0.02-0.373-0.882-0.018-1.85 0.42-2.892 0.473-1.126 0.98-2.376 0.422-3.647-0.072-0.184-0.248-0.313-0.457-0.313-0.27 0-0.49 0.22-0.49 0.49 0 0.06 0.014 0.116 0.033 0.169 0 0.002 0 0.004 0 0.006 0.002 0.003 0.002 0.006 0.004 0.009 0.002 0.004 0.004 0.008 0.004 0.012 0.404 0.909 0.014 1.841-0.428 2.893-0.465 1.109-0.98 2.339-0.461 3.592C20.143 11.539 20.148 11.553 20.154 11.566z" data-fill-palette-color="accent"></path><path fill="#000000" d="M15.019 7.212c0.003 0.006 0.005 0.012 0.008 0.018 0 0 0.001 0 0.002 0 0.084 0.16 0.25 0.271 0.443 0.271 0.277 0 0.502-0.226 0.502-0.503 0-0.043-0.007-0.085-0.018-0.125 0.002-0.007 0.002-0.013 0-0.02-0.375-0.882-0.019-1.85 0.419-2.892 0.473-1.126 0.98-2.376 0.422-3.647C16.725 0.13 16.549 0 16.34 0c-0.27 0-0.49 0.22-0.49 0.49 0 0.06 0.012 0.116 0.032 0.169 0 0.002 0 0.004 0.001 0.006 0.001 0.003 0.002 0.006 0.003 0.009 0.001 0.004 0.003 0.008 0.004 0.012 0.404 0.909 0.013 1.841-0.428 2.893-0.466 1.109-0.982 2.339-0.462 3.592C15.007 7.185 15.012 7.198 15.019 7.212z" data-fill-palette-color="accent"></path></g></svg></g></svg></g></svg></g></svg></g></svg></g><defs></defs></svg><rect width="320" height="360" fill="none" stroke="none" visibility="hidden"></rect></g></svg></g></svg>