<svg width="90" height="103" viewBox="0 0 90 103" fill="none" xmlns="http://www.w3.org/2000/svg">
    <g clip-path="url(#clip0_17_271)">
        <g clip-path="url(#clip1_17_271)">
            <path d="M61.7569 12.4084C61.9557 12.4084 63.547 13.2041 64.442 13.5025C64.1436 13.6021 63.4475 13.3037 62.6518 13.0053C62.8507 13.0053 63.2486 13.1048 63.6463 13.3034C63.4475 13.1045 61.9557 12.6073 61.7569 12.4084ZM46.9392 9.32566C47.2376 9.2261 50.7181 9.72335 52.3094 9.82291C52.409 9.72335 52.1106 9.72335 51.7126 9.62406C52.2098 9.5245 53.2043 9.82291 53.9004 9.92219C51.8122 10.0218 49.5247 9.42494 47.536 9.62406C46.8399 9.62406 47.3372 9.42522 46.9392 9.32566ZM44.0553 9.32566C45.8454 9.32566 47.2376 9.32566 44.6518 9.5245C44.3534 9.42494 43.9557 9.42494 44.0553 9.32566ZM72.1988 17.5798C72.3977 17.5798 73.1933 18.4747 73.591 18.7731C73.4915 18.8727 72.6961 18.077 72.2984 17.7786C72.398 17.8782 72.2984 17.7786 72.1988 17.5798ZM70.2098 16.2869C69.4142 15.5908 69.1161 15.5908 69.0165 15.1931C69.7126 15.5908 70.2098 15.9887 70.2098 16.2869ZM57.3812 10.0218C57.4808 9.92219 57.6796 10.1213 58.1768 10.2206C57.58 10.121 57.6796 10.2206 57.8784 10.4194C57.1823 10.3199 56.9835 10.2206 57.1823 10.0218C57.58 10.2206 57.6796 10.1213 57.3812 10.0218ZM29.1381 11.2151C29.1381 11.1155 29.5358 10.9167 29.8342 10.8174C29.5358 11.0163 29.6353 11.1158 30.1326 10.9167C30.1326 11.0163 29.5357 11.2151 29.1381 11.4139C29.3369 11.3144 29.5357 11.0163 29.1381 11.2151ZM59.3702 9.02725C59.0718 9.12681 57.978 8.53 56.8839 8.33116C56.2871 8.13231 59.2706 8.82841 59.3702 9.02725ZM0.696094 58.1543C0.894937 60.541 1.29291 60.6406 0.696094 58.1543V58.1543ZM0.795656 43.2371C0.895219 42.8394 0.9945 41.7453 1.09378 41.8449C0.795375 44.2316 0.298125 45.3256 0.198844 47.1155C0.49725 45.5245 0.0992812 48.0105 0 48.6073C0.0995625 49.4029 0.0995625 48.11 0.298406 48.3092C0.49725 48.6076 -0.0992813 52.7844 0.0995625 50.497C-0.0992813 52.5853 0.0995625 54.8727 0.49725 55.4692C0 58.6516 2.48625 65.8116 2.9835 67.3034C3.08306 67.4029 2.9835 66.8061 3.18234 67.2041C3.38119 68.497 4.27612 69.3919 4.57453 70.7841C4.87294 71.1818 6.06628 73.3697 6.26512 73.8672C6.66281 74.6628 6.86194 74.5633 7.25962 75.3586C8.45297 77.646 10.3424 79.8339 12.1326 81.9222C17.9004 88.6845 26.7514 94.2536 36.5968 96.2429C46.4422 98.3311 56.7847 96.8397 64.8397 92.9609C65.3369 92.6625 65.2373 92.5633 65.8342 92.3641C68.6188 91.4692 72 88.5853 73.8894 87.4912C74.7844 86.4967 77.1713 84.8061 77.4697 83.8119C79.1603 82.4197 80.8509 80.1323 81.7459 78.6405C82.2431 77.8449 82.6408 77.8449 82.8397 77.3476C82.7401 77.3476 84.4307 75.2594 84.9282 74.066C84.7294 74.066 84.431 74.6628 84.431 74.066C88.011 67.2041 90 57.9555 88.9059 51.5908C89.1048 59.4472 87.1158 68.1986 83.3369 73.7676C81.6463 77.3476 78.1656 81.2261 74.9835 84.0107C74.4863 84.508 73.989 85.1045 73.3922 85.5025C71.5028 87.0935 69.4142 88.3864 67.2266 89.5798C62.0553 92.4637 56.2874 94.95 49.5247 95.0492C61.1601 94.0547 71.602 88.1873 77.3702 81.0272C72.9945 85.3034 71.1051 86.9939 66.2321 89.4802C65.8344 90.1763 62.5525 91.5685 60.3647 92.1653C61.6576 91.5685 64.3427 90.5743 65.2376 89.7786C57.978 93.2594 49.9227 95.2484 42.3647 94.1543C45.2486 94.1543 49.3259 94.2539 53.2043 93.5578C53.8012 93.3589 54.0993 93.1601 54.7957 93.0605C62.3537 91.3699 69.6133 87.6903 74.7847 82.519C71.8012 85.2041 67.3262 88.3864 64.442 89.3809C67.1271 87.8892 72 85.0052 73.591 82.8174C70.4087 85.9997 64.442 89.1821 60.6631 90.5743C60.0663 90.6738 61.0608 90.1766 60.0663 90.5743C58.8729 90.8727 59.3702 90.8727 59.0718 91.0715C54.4973 92.3644 49.2263 93.4582 44.8509 93.0605C44.0553 92.9609 43.7572 92.7621 43.0608 92.7621C42.2651 92.6625 41.569 92.6625 40.6741 92.6625C37.1933 92.2649 33.4145 90.8724 30.6298 89.6793C29.1381 88.9832 27.6463 88.486 26.1546 87.5908C24.9612 86.8947 23.9667 86.099 22.9725 85.3036C19.1936 82.519 16.0113 79.7346 13.0275 75.7566C7.65731 68.2981 4.87294 58.95 5.27063 49.7013C5.66831 40.4527 9.34791 31.4029 15.2153 24.7398C14.9169 25.0382 15.613 24.0437 16.2098 23.4472C16.2098 23.6461 16.1103 23.9445 16.8067 23.2484C17.4035 22.5523 16.6078 23.0495 16.9059 22.6516C23.0718 15.8892 33.8122 10.4194 44.8509 10.2206C45.2486 9.92219 45.9447 9.5245 46.7404 9.72335C46.7404 9.82291 46.2431 9.82291 46.2431 9.82291C47.3369 9.72335 48.3314 9.72335 48.8287 9.92219C48.9282 9.82263 48.431 9.72335 48.8287 9.72335C49.5248 9.92219 49.7236 9.72335 50.1216 9.92219C49.8232 9.92219 49.5247 9.92219 49.3259 10.0218C51.8122 10.0218 53.4032 10.6186 55.8894 10.8174C54.5965 10.519 54.2984 10.519 53.3039 10.2206C54.3977 10.4194 54.8949 10.6183 55.3922 10.519C55.1933 10.519 55.2926 10.2206 55.4917 10.3202C57.4808 10.8174 57.6796 11.0163 59.7679 11.7123C59.9667 11.5135 58.8729 11.4139 58.5745 11.1155C60.5635 11.8116 62.3534 12.3089 63.547 13.1045C63.1493 12.8061 61.956 12.4084 61.0608 12.0108C60.9612 12.1103 61.3592 12.2096 61.4585 12.4084C60.464 11.9112 59.0718 11.4139 57.6796 11.2151C58.8729 11.5135 59.6686 11.9112 60.1658 12.11C59.0721 11.9112 57.6796 11.2151 56.0883 10.9167C58.6738 11.7123 63.5467 13.5022 66.5303 15.0935C65.4365 14.3974 64.1436 13.9002 63.4475 13.5025C64.0443 13.6021 64.7404 13.9998 64.7404 13.8006C65.4365 14.099 66.3314 14.7951 66.8287 14.8947C65.9337 14.2979 64.1436 13.4029 63.547 13.1045C71.0055 16.4857 77.6686 22.1543 81.9447 29.4139C82.3424 30.11 82.9392 31.7013 83.4365 31.9002C83.3369 31.4029 82.9392 31.1045 82.5415 30.3092C82.7404 30.3092 82.7404 30.0107 82.5415 29.7123C82.1438 29.2151 82.5415 30.11 82.1436 29.6128C80.3534 26.3309 78.1656 23.4469 74.7847 20.2649C76.6741 22.055 75.2819 20.7621 74.8839 20.1653C77.4695 22.4527 80.453 26.3312 81.7459 28.3202C81.547 28.0217 81.4475 27.8229 81.547 27.8229C83.9337 31.9002 85.4255 35.5798 86.9172 40.8504C87.0168 40.95 86.9172 40.4527 87.1161 40.7511C88.1106 44.928 88.409 48.4087 88.3094 51.5908C89.1051 46.2206 87.3149 37.8669 84.1326 31.3034C83.7349 30.5077 83.7349 31.1045 83.3369 30.2096C83.3369 29.9112 83.0385 29.3147 82.8397 28.9167C78.8616 22.3532 73.9887 17.6791 68.2208 13.9998C68.6185 14.1986 69.4142 14.7954 69.4145 14.6958C58.6741 7.63506 46.2431 6.64056 36 8.82841C35.3039 9.12681 35.0055 9.42522 34.2098 9.82291C35.7016 9.32566 36.5965 9.2261 37.989 8.92769C38.2874 8.62928 36.6961 9.02725 37.3922 8.72885C37.4917 8.82841 38.7844 8.53 39.0828 8.62956C39.0828 8.72913 38.6851 8.82841 38.5855 8.92769C41.8674 8.2316 45.2486 8.13203 48.1326 8.33116C46.442 8.43072 43.3592 8.13231 42.3647 8.62956C43.3592 8.53 44.7514 8.43072 45.6463 8.53C44.453 8.53 42.2651 8.62956 41.2706 8.72885C41.1711 8.62928 42.8617 8.43044 41.7679 8.43072C41.2706 8.53028 40.475 8.53028 40.1768 8.82841C31.6243 9.62406 23.2706 14.099 17.4032 19.3699C16.2098 20.3644 14.8177 21.4582 13.9227 22.552C11.7349 25.0382 10.3427 27.5245 8.75138 29.7123C9.74587 27.6241 11.9337 24.4417 14.5192 21.7566C17.1048 19.0715 19.8894 16.7841 21.3812 15.5908C21.3812 15.9885 23.7679 14.099 24.6631 13.5025C24.0663 13.9998 25.0608 13.3037 25.2596 13.4029C28.442 11.5135 31.0275 10.8174 33.9117 9.72335C33.2156 9.92219 32.6188 10.121 32.5192 10.0218C33.2153 9.82291 33.613 9.62406 33.5138 9.5245C30.7291 10.3202 26.3534 12.2096 22.8729 14.2979C29.1381 10.0218 37.0941 7.43594 44.9502 7.33666C52.8067 7.13781 60.464 9.12681 66.5303 12.3092C70.6075 14.0993 74.486 17.3809 77.569 20.5633C78.464 21.3589 77.7679 20.3644 79.0608 21.7566C78.6631 21.5578 78.3647 21.3589 78.8619 21.9555C79.6576 22.8504 78.6631 21.2594 79.9557 22.8504C79.8562 22.8504 79.4585 22.3532 79.4585 22.552C82.9392 25.6348 85.6243 31.2038 87.2153 34.8837C86.8177 33.3919 85.8232 31.3037 85.0275 29.8119C87.4142 34.1876 88.2098 36.7731 89.2043 40.6516C89.602 40.95 89.0055 39.2594 89.4032 40.055C89.5027 40.6518 89.602 42.5413 90 42.8394C89.7016 40.95 89.2043 38.6626 88.8067 38.2649C89.1051 38.4637 88.3094 35.9775 87.8122 35.3809C87.6133 33.7899 86.2211 31.0052 85.0275 28.9167C80.7514 20.563 73.0938 13.7013 64.5415 9.92219C64.5415 9.72335 64.0443 9.5245 63.8452 9.32566C55.3922 5.74563 45.2483 4.75113 35.5028 7.03825C25.6573 9.42494 16.409 15.0935 9.84516 23.2484C10.1436 22.2539 12.6298 20.3644 12.7294 19.5688C9.84544 22.6516 6.76266 26.7291 4.67409 31.1045C2.48625 35.4802 1.29291 39.9555 0.795656 43.2371Z"
                  fill="white"/>
            <g clip-path="url(#clip2_17_271)">
                <g clip-path="url(#clip3_17_271)">
                    <g clip-path="url(#clip4_17_271)">
                        <g clip-path="url(#clip5_17_271)">
                            <g clip-path="url(#clip6_17_271)">
                                <g clip-path="url(#clip7_17_271)">
                                    <path d="M38.8326 44.062H42.3125C43.0978 44.062 43.4904 44.2618 43.4904 44.6616C43.4904 44.9043 43.3833 45.0792 43.1692 45.1863C42.9407 45.0221 42.5981 44.94 42.1412 44.94H39.368V47.3599H41.4024C41.845 47.3599 42.1591 47.397 42.3447 47.4713C42.5303 47.5469 42.6231 47.6811 42.6231 47.8739C42.6231 48.0666 42.5267 48.2236 42.334 48.345C42.1341 48.2522 41.7914 48.2058 41.306 48.2058H39.368V51.0112C39.368 51.2753 39.4643 51.4466 39.6571 51.5251C39.4715 51.775 39.243 51.8999 38.9718 51.8999C38.4864 51.8999 38.2437 51.6001 38.2437 51.0005V44.9935C38.2437 44.7365 38.1437 44.5652 37.9438 44.4796C38.1437 44.2012 38.44 44.062 38.8326 44.062ZM47.9019 47.4391C47.6021 47.0651 47.2288 46.8781 46.7819 46.8781C46.3365 46.8781 45.996 47.0422 45.7604 47.3706C45.5248 47.699 45.407 48.1701 45.407 48.784C45.407 49.662 45.5605 50.2916 45.8675 50.6728C46.1744 51.0554 46.5492 51.2467 46.9918 51.2467C47.4343 51.2467 47.7713 51.079 48.0026 50.7435C48.2353 50.408 48.3516 49.9369 48.3516 49.3301C48.3516 48.4449 48.2017 47.8146 47.9019 47.4391ZM44.272 49.056C44.272 48.1537 44.5219 47.4541 45.0216 46.9573C45.5213 46.4619 46.1402 46.2142 46.8783 46.2142C47.6178 46.2142 48.2374 46.464 48.7371 46.9637C49.2368 47.4634 49.4866 48.163 49.4866 49.0624C49.4866 49.9618 49.2368 50.6593 48.7371 51.1547C48.2374 51.6515 47.6199 51.8999 46.8847 51.8999C46.1494 51.8999 45.5298 51.6515 45.0258 51.1547C44.5233 50.6593 44.272 49.9597 44.272 49.056ZM52.0672 47.1243V47.3385C52.3527 46.5889 52.8417 46.2142 53.5341 46.2142C53.8767 46.2142 54.1444 46.3034 54.3372 46.4819C54.5285 46.6603 54.6241 46.8795 54.6241 47.1393C54.6241 47.4006 54.5585 47.6005 54.4271 47.7389C54.2958 47.8789 54.123 47.9488 53.9089 47.9488C53.9017 47.9488 53.8125 47.9381 53.6412 47.9167C53.6626 47.8096 53.6733 47.6933 53.6733 47.5676C53.6733 47.4434 53.6248 47.3328 53.5277 47.2357C53.432 47.14 53.2878 47.0922 53.0951 47.0922C52.9009 47.0922 52.7025 47.1971 52.4997 47.407C52.297 47.6183 52.1528 47.9488 52.0672 48.3985V51.0112C52.0672 51.2682 52.1671 51.4395 52.367 51.5251C52.1814 51.775 51.9522 51.8999 51.6795 51.8999C51.1956 51.8999 50.9536 51.6001 50.9536 51.0005V47.1136C50.9536 46.8638 50.8536 46.6889 50.6538 46.5889C50.8379 46.3391 51.0664 46.2142 51.339 46.2142C51.8245 46.2142 52.0672 46.5176 52.0672 47.1243ZM56.7978 44.4903V48.5377C58.2897 47.8739 59.0357 47.0993 59.0357 46.2142C59.3426 46.2142 59.591 46.2856 59.7809 46.4283C59.9694 46.5711 60.0636 46.7603 60.0636 46.9958C60.0636 47.367 59.8516 47.7111 59.4276 48.028C59.0021 48.3464 58.4146 48.6234 57.6651 48.859C58.4646 49.8012 59.0464 50.383 59.4104 50.6043C59.6174 50.7399 59.7888 50.8256 59.9244 50.8613C60.06 50.897 60.2242 50.9148 60.4169 50.9148C60.4169 51.2075 60.3441 51.4445 60.1985 51.6258C60.0515 51.8085 59.8494 51.8999 59.5925 51.8999C59.2427 51.8999 58.8879 51.7157 58.5281 51.3474C58.1669 50.9805 57.5901 50.2402 56.7978 49.1266V51.0112C56.7978 51.2682 56.8977 51.4395 57.0976 51.5251C56.912 51.775 56.6836 51.8999 56.4123 51.8999C55.9269 51.8999 55.6842 51.6001 55.6842 51.0005V44.4796C55.6842 44.2297 55.5842 44.0548 55.3844 43.9549C55.5557 43.7122 55.7841 43.5908 56.0697 43.5908C56.5551 43.5908 56.7978 43.8906 56.7978 44.4903ZM62.8583 44.4903V51.0112C62.8583 51.2682 62.9582 51.4395 63.1581 51.5251C62.9725 51.775 62.7441 51.8999 62.4728 51.8999C61.9874 51.8999 61.7447 51.6001 61.7447 51.0005V44.4796C61.7447 44.2297 61.6447 44.0548 61.4449 43.9549C61.6162 43.7122 61.8446 43.5908 62.1302 43.5908C62.6156 43.5908 62.8583 43.8906 62.8583 44.4903ZM65.3424 43.8157C65.5494 43.8157 65.7222 43.8778 65.8607 44.002C66.0006 44.1276 66.0705 44.294 66.0705 44.501C66.0705 44.708 65.9813 44.895 65.8029 45.062C65.6244 45.2305 65.4224 45.3147 65.1968 45.3147C64.9727 45.3147 64.7928 45.2505 64.6571 45.122C64.5215 44.9935 64.4537 44.8201 64.4537 44.6016C64.4537 44.3846 64.5501 44.199 64.7428 44.0448C64.9355 43.8921 65.1354 43.8157 65.3424 43.8157ZM65.8564 47.1243V51.0112C65.8564 51.2682 65.9563 51.4395 66.1562 51.5251C65.9706 51.775 65.7422 51.8999 65.4709 51.8999C64.9855 51.8999 64.7428 51.6001 64.7428 51.0005V47.1136C64.7428 46.8638 64.6429 46.6889 64.443 46.5889C64.6286 46.3391 64.857 46.2142 65.1283 46.2142C65.6137 46.2142 65.8564 46.5176 65.8564 47.1243ZM67.9872 46.7603H68.0514V45.3469C68.0514 44.7829 68.2099 44.3489 68.5269 44.0448C68.8452 43.7422 69.2293 43.5908 69.679 43.5908C70.1287 43.5908 70.4764 43.6801 70.7219 43.8585C70.9689 44.037 71.0924 44.2347 71.0924 44.4517C71.0924 44.6701 71.0175 44.8008 70.8675 44.8436C70.5963 44.5367 70.2893 44.3832 69.9467 44.3832C69.4327 44.3832 69.1757 44.6973 69.1757 45.3254V46.7603H70.7498C70.7926 46.8174 70.814 46.8852 70.814 46.9637C70.814 47.1208 70.6998 47.2578 70.4714 47.3749C70.2429 47.4934 69.8646 47.5526 69.3364 47.5526H69.1757V53.0456C69.1757 53.5382 69.0701 53.9079 68.8588 54.1549C68.6489 54.4005 68.3798 54.5233 68.0514 54.5233C67.5946 54.5233 67.2769 54.2984 67.0985 53.8487C67.4554 53.8487 67.7031 53.7702 67.8416 53.6131C67.9815 53.4561 68.0514 53.192 68.0514 52.8208V47.5419C67.4233 47.5062 67.1092 47.3528 67.1092 47.0815C67.1092 46.9387 67.1663 46.8174 67.2805 46.7174C67.5089 46.746 67.7445 46.7603 67.9872 46.7603ZM73.8635 51.2253L75.2876 47.2207C75.3447 47.0636 75.3733 46.9116 75.3733 46.7646C75.3733 46.6189 75.3305 46.4926 75.2448 46.3855C75.4019 46.2713 75.5982 46.2142 75.8337 46.2142C76.0693 46.2142 76.2585 46.3248 76.4012 46.5461C76.4655 46.6532 76.4976 46.7795 76.4976 46.9252C76.4976 47.0722 76.4619 47.2385 76.3905 47.4241L74.2169 53.142C73.8671 54.0628 73.3638 54.5233 72.7071 54.5233C72.443 54.5233 72.2345 54.4576 72.0818 54.3263C71.9276 54.1935 71.8505 54.0272 71.8505 53.8273C71.8505 53.6274 71.9076 53.4597 72.0218 53.324C72.1575 53.4739 72.3359 53.5489 72.5572 53.5489C72.8856 53.5489 73.1247 53.3276 73.2746 52.885L73.628 51.8999C73.6208 51.8999 73.6101 51.8999 73.5958 51.8999C73.4102 51.8999 73.2411 51.8357 73.0883 51.7072C72.9341 51.5787 72.8178 51.3931 72.7392 51.1504L71.4008 47.1672C71.2937 46.8388 71.1688 46.6353 71.026 46.5568C71.2116 46.3284 71.4258 46.2142 71.6685 46.2142C71.9112 46.2142 72.0968 46.282 72.2253 46.4176C72.3538 46.5533 72.4573 46.7674 72.5358 47.0601L73.8635 51.2253Z"
                                          fill="white"/>
                                </g>
                            </g>
                            <g clip-path="url(#clip8_17_271)">
                                <g clip-path="url(#clip9_17_271)">
                                    <path d="M39.4611 57.6269C39.4611 57.6883 39.4439 57.7368 39.4095 57.7724C39.3746 57.8081 39.3314 57.8259 39.28 57.8259C39.2285 57.8259 39.175 57.812 39.1196 57.7843C39.1314 57.7487 39.1374 57.716 39.1374 57.6863C39.1374 57.619 39.1017 57.557 39.0305 57.5004C38.9592 57.4441 38.8596 57.416 38.7317 57.416C38.6041 57.416 38.5018 57.4421 38.4245 57.4944C38.3473 57.5471 38.3087 57.614 38.3087 57.6952C38.3087 57.7764 38.339 57.8467 38.3996 57.9061C38.4598 57.9655 38.535 58.015 38.6253 58.0546C38.7152 58.0942 38.8126 58.1391 38.9176 58.1894C39.0225 58.2401 39.1202 58.2898 39.2105 58.3385C39.3004 58.3869 39.3756 58.4496 39.4362 58.5269C39.4964 58.6041 39.5265 58.6892 39.5265 58.7823C39.5265 58.9625 39.4479 59.112 39.2906 59.2308C39.133 59.3496 38.9429 59.409 38.7204 59.409C38.4974 59.409 38.3123 59.3619 38.1649 59.2676C38.0172 59.1738 37.9434 59.0546 37.9434 58.91C37.9434 58.8407 37.9647 58.7847 38.0075 58.7419C38.0499 58.6995 38.1043 58.6783 38.1709 58.6783C38.237 58.6783 38.2929 58.7041 38.3384 58.7556C38.2929 58.7952 38.2701 58.851 38.2701 58.9231C38.2701 58.9956 38.3103 59.0585 38.3907 59.112C38.4707 59.1655 38.58 59.1922 38.7186 59.1922C38.8572 59.1922 38.9746 59.1585 39.0709 59.0912C39.1667 59.0239 39.2146 58.9451 39.2146 58.8548C39.2146 58.7649 39.1726 58.6872 39.0887 58.6219C39.0043 58.5566 38.9027 58.4995 38.7839 58.4508C38.6651 58.4025 38.5459 58.3506 38.4263 58.2952C38.3063 58.2397 38.2043 58.1675 38.1204 58.0784C38.036 57.9892 37.9939 57.8873 37.9939 57.7724C37.9939 57.6041 38.0681 57.4671 38.2166 57.3613C38.3651 57.2552 38.5429 57.2021 38.7501 57.2021C38.9568 57.2021 39.1271 57.2431 39.2609 57.3251C39.3944 57.4075 39.4611 57.5081 39.4611 57.6269ZM40.1799 58.9962C40.1799 59.1229 40.2492 59.1862 40.3878 59.1862C40.5265 59.1862 40.6403 59.1278 40.7294 59.011V58.6754C40.5413 58.6853 40.4027 58.7193 40.3136 58.7775C40.2245 58.8362 40.1799 58.909 40.1799 58.9962ZM41.0413 58.3279V59.0823C41.0413 59.1932 41.0908 59.2585 41.1898 59.2783C41.1403 59.3654 41.0641 59.409 40.9611 59.409C40.8284 59.409 40.7522 59.3348 40.7324 59.1862C40.6175 59.3348 40.4641 59.409 40.272 59.409C40.1453 59.409 40.0423 59.3753 39.9631 59.308C39.8839 59.2407 39.8443 59.1476 39.8443 59.0288C39.8443 58.8823 39.9195 58.7639 40.07 58.6736C40.2205 58.5837 40.4403 58.5348 40.7294 58.5269V58.3189C40.7294 58.212 40.71 58.1332 40.6712 58.0825C40.6328 58.0322 40.5734 58.0071 40.493 58.0071C40.413 58.0071 40.3522 58.0243 40.3106 58.0588C40.269 58.0936 40.2482 58.1352 40.2482 58.1835C40.2482 58.2322 40.2621 58.2714 40.2898 58.3011C40.2403 58.3447 40.1829 58.3665 40.1176 58.3665C40.0522 58.3665 40.0011 58.35 39.9643 58.3172C39.9279 58.2847 39.9096 58.2397 39.9096 58.1823C39.9096 58.0833 39.9671 58.0001 40.0819 57.9328C40.1968 57.8655 40.3358 57.8318 40.4989 57.8318C40.6625 57.8318 40.7938 57.8744 40.8928 57.9595C40.9918 58.0447 41.0413 58.1675 41.0413 58.3279ZM42.0987 59.1981L42.4759 58.1526C42.4957 58.1011 42.5056 58.052 42.5056 58.0053C42.5056 57.959 42.4917 57.919 42.464 57.8853C42.5155 57.8496 42.569 57.8318 42.6244 57.8318C42.6799 57.8318 42.7238 57.8477 42.7563 57.8794C42.7892 57.911 42.8056 57.95 42.8056 57.9964C42.8056 58.0431 42.7927 58.1011 42.767 58.1704L42.3749 59.1536C42.3393 59.2466 42.3017 59.312 42.262 59.3496C42.2224 59.3872 42.166 59.406 42.0927 59.406C42.0195 59.406 41.9621 59.3872 41.9205 59.3496C41.8789 59.312 41.8432 59.2466 41.8135 59.1536L41.472 58.1199C41.4442 58.0407 41.4027 57.9942 41.3472 57.9803C41.3551 57.9368 41.3783 57.9011 41.4167 57.8734C41.4555 57.8457 41.4987 57.8318 41.5462 57.8318C41.667 57.8318 41.7472 57.9071 41.7868 58.0576L42.0987 59.1981ZM44.0258 58.1716C43.9426 58.0679 43.8392 58.016 43.7157 58.016C43.5917 58.016 43.4971 58.0615 43.4317 58.1526C43.3664 58.2437 43.3337 58.3744 43.3337 58.5447C43.3337 58.7882 43.3763 58.9629 43.4614 59.0686C43.5466 59.1748 43.6505 59.2278 43.7733 59.2278C43.8961 59.2278 43.9897 59.1813 44.0543 59.0882C44.1184 58.9952 44.1505 58.8645 44.1505 58.6962C44.1505 58.4506 44.1089 58.2758 44.0258 58.1716ZM43.0189 58.6201C43.0189 58.3698 43.0882 58.1758 43.2268 58.038C43.3654 57.9005 43.5373 57.8318 43.7424 57.8318C43.9471 57.8318 44.1188 57.9011 44.2574 58.0397C44.396 58.1784 44.4654 58.3724 44.4654 58.6219C44.4654 58.8714 44.396 59.0649 44.2574 59.2023C44.1188 59.3401 43.9475 59.409 43.7436 59.409C43.5396 59.409 43.368 59.3401 43.2286 59.2023C43.0888 59.0649 43.0189 58.8708 43.0189 58.6201ZM45.1812 58.0843V58.1437C45.2604 57.9358 45.396 57.8318 45.5881 57.8318C45.6831 57.8318 45.7574 57.8566 45.8109 57.9061C45.8643 57.9556 45.8911 58.0164 45.8911 58.0885C45.8911 58.1609 45.8728 58.2164 45.8364 58.2548C45.7996 58.2936 45.7515 58.313 45.692 58.313C45.6901 58.313 45.6653 58.31 45.6178 58.3041C45.6237 58.2744 45.6267 58.2421 45.6267 58.2073C45.6267 58.1728 45.6134 58.1421 45.5869 58.1152C45.56 58.0887 45.5198 58.0754 45.4663 58.0754C45.4128 58.0754 45.358 58.1045 45.3018 58.1627C45.2451 58.2213 45.2049 58.313 45.1812 58.4378V59.1625C45.1812 59.2338 45.2089 59.2813 45.2643 59.3051C45.2129 59.3744 45.1495 59.409 45.0742 59.409C44.9396 59.409 44.8723 59.3258 44.8723 59.1595V58.0813C44.8723 58.012 44.8445 57.9635 44.7891 57.9358C44.8406 57.8665 44.904 57.8318 44.9792 57.8318C45.1138 57.8318 45.1812 57.916 45.1812 58.0843ZM48.4662 57.6269C48.4662 57.6883 48.4488 57.7368 48.4139 57.7724C48.3795 57.8081 48.3365 57.8259 48.285 57.8259C48.2336 57.8259 48.1801 57.812 48.1247 57.7843C48.1365 57.7487 48.1425 57.716 48.1425 57.6863C48.1425 57.619 48.1068 57.557 48.0355 57.5004C47.9643 57.4441 47.8647 57.416 47.7367 57.416C47.6092 57.416 47.5068 57.4421 47.4296 57.4944C47.352 57.5471 47.3132 57.614 47.3132 57.6952C47.3132 57.7764 47.3435 57.8467 47.4041 57.9061C47.4647 57.9655 47.5399 58.015 47.6298 58.0546C47.7201 58.0942 47.8177 58.1391 47.9227 58.1894C48.0276 58.2401 48.125 58.2898 48.2149 58.3385C48.3052 58.3869 48.3805 58.4496 48.4407 58.5269C48.5013 58.6041 48.5316 58.6892 48.5316 58.7823C48.5316 58.9625 48.4528 59.112 48.2951 59.2308C48.1379 59.3496 47.9478 59.409 47.7249 59.409C47.5023 59.409 47.3172 59.3619 47.1694 59.2676C47.0221 59.1738 46.9484 59.0546 46.9484 58.91C46.9484 58.8407 46.9696 58.7847 47.012 58.7419C47.0544 58.6995 47.1088 58.6783 47.1754 58.6783C47.2419 58.6783 47.2977 58.7041 47.3429 58.7556C47.2977 58.7952 47.2752 58.851 47.2752 58.9231C47.2752 58.9956 47.3152 59.0585 47.3952 59.112C47.4756 59.1655 47.5851 59.1922 47.7237 59.1922C47.8623 59.1922 47.9795 59.1585 48.0753 59.0912C48.1716 59.0239 48.2197 58.9451 48.2197 58.8548C48.2197 58.7649 48.1775 58.6872 48.0932 58.6219C48.0092 58.5566 47.9076 58.4995 47.7884 58.4508C47.6696 58.4025 47.5504 58.3506 47.4308 58.2952C47.3112 58.2397 47.2092 58.1675 47.1249 58.0784C47.0409 57.9892 46.9989 57.8873 46.9989 57.7724C46.9989 57.6041 47.0732 57.4671 47.2217 57.3613C47.3702 57.2552 47.5478 57.2021 47.7546 57.2021C47.9617 57.2021 48.132 57.2431 48.2654 57.3251C48.3993 57.4075 48.4662 57.5081 48.4662 57.6269ZM50.2537 58.3516V59.1625C50.2537 59.2338 50.2814 59.2813 50.3369 59.3051C50.2854 59.3744 50.222 59.409 50.1468 59.409C50.0121 59.409 49.9448 59.3258 49.9448 59.1595V58.3813C49.9448 58.1892 49.8606 58.0932 49.6923 58.0932C49.6032 58.0932 49.5187 58.1308 49.4387 58.2061C49.3583 58.2813 49.3022 58.3833 49.2706 58.512V59.1625C49.2706 59.2338 49.2983 59.2813 49.3537 59.3051C49.3022 59.3744 49.2389 59.409 49.1636 59.409C49.029 59.409 48.9617 59.3258 48.9617 59.1595V57.3507C48.9617 57.2813 48.9339 57.2328 48.8785 57.2051C48.926 57.1378 48.9894 57.1041 49.0686 57.1041C49.2032 57.1041 49.2706 57.1873 49.2706 57.3536V58.1823C49.322 58.0754 49.3953 57.9902 49.4904 57.9269C49.5854 57.8635 49.6963 57.8318 49.823 57.8318C49.9497 57.8318 50.0533 57.8754 50.1337 57.9625C50.2137 58.0496 50.2537 58.1793 50.2537 58.3516ZM50.9844 58.9962C50.9844 59.1229 51.0537 59.1862 51.1923 59.1862C51.3309 59.1862 51.4448 59.1278 51.5339 59.011V58.6754C51.3457 58.6853 51.2071 58.7193 51.118 58.7775C51.0289 58.8362 50.9844 58.909 50.9844 58.9962ZM51.8457 58.3279V59.0823C51.8457 59.1932 51.8952 59.2585 51.9942 59.2783C51.9447 59.3654 51.8685 59.409 51.7655 59.409C51.6329 59.409 51.5566 59.3348 51.5368 59.1862C51.422 59.3348 51.2685 59.409 51.0764 59.409C50.9497 59.409 50.8468 59.3753 50.7675 59.308C50.6883 59.2407 50.6487 59.1476 50.6487 59.0288C50.6487 58.8823 50.724 58.7639 50.8745 58.6736C51.025 58.5837 51.2448 58.5348 51.5339 58.5269V58.3189C51.5339 58.212 51.5147 58.1332 51.4762 58.0825C51.4374 58.0322 51.378 58.0071 51.298 58.0071C51.2176 58.0071 51.1566 58.0243 51.1151 58.0588C51.0735 58.0936 51.0527 58.1352 51.0527 58.1835C51.0527 58.2322 51.0665 58.2714 51.0943 58.3011C51.0448 58.3447 50.9873 58.3665 50.922 58.3665C50.8567 58.3665 50.8058 58.35 50.7693 58.3172C50.7325 58.2847 50.7141 58.2397 50.7141 58.1823C50.7141 58.0833 50.7715 58.0001 50.8864 57.9328C51.0012 57.8655 51.1404 57.8318 51.304 57.8318C51.4671 57.8318 51.5982 57.8744 51.6972 57.9595C51.7962 58.0447 51.8457 58.1675 51.8457 58.3279ZM52.6715 58.0843V58.1437C52.7507 57.9358 52.8863 57.8318 53.0784 57.8318C53.1734 57.8318 53.2477 57.8566 53.3011 57.9061C53.3546 57.9556 53.3813 58.0164 53.3813 58.0885C53.3813 58.1609 53.3629 58.2164 53.3261 58.2548C53.2897 58.2936 53.2417 58.313 53.1823 58.313C53.1803 58.313 53.1556 58.31 53.1081 58.3041C53.114 58.2744 53.117 58.2421 53.117 58.2073C53.117 58.1728 53.1035 58.1421 53.0766 58.1152C53.0501 58.0887 53.0101 58.0754 52.9566 58.0754C52.9031 58.0754 52.8481 58.1045 52.7914 58.1627C52.7352 58.2213 52.6952 58.313 52.6715 58.4378V59.1625C52.6715 59.2338 52.6992 59.2813 52.7546 59.3051C52.7031 59.3744 52.6398 59.409 52.5645 59.409C52.4299 59.409 52.3625 59.3258 52.3625 59.1595V58.0813C52.3625 58.012 52.3348 57.9635 52.2794 57.9358C52.3309 57.8665 52.3942 57.8318 52.4695 57.8318C52.6041 57.8318 52.6715 57.916 52.6715 58.0843ZM53.8863 58.4912L54.3704 58.4467C54.4476 58.4407 54.4863 58.3962 54.4863 58.313C54.4863 58.2298 54.4639 58.1609 54.4191 58.1063C54.3748 58.052 54.312 58.0249 54.2308 58.0249C54.1496 58.0249 54.0758 58.0655 54.0092 58.1467C53.9431 58.2279 53.9021 58.3427 53.8863 58.4912ZM53.8774 58.6486C53.8793 58.8288 53.9203 58.9619 54.0003 59.0478C54.0807 59.1342 54.1946 59.1773 54.3419 59.1773C54.4896 59.1773 54.6189 59.1219 54.7298 59.011C54.7635 59.0288 54.7803 59.0595 54.7803 59.1031C54.7803 59.1763 54.7298 59.2456 54.6288 59.311C54.5278 59.3763 54.409 59.409 54.2724 59.409C54.0585 59.409 53.8863 59.3451 53.7556 59.2171C53.6249 59.0896 53.5595 58.908 53.5595 58.6724C53.5595 58.4368 53.6308 58.2378 53.7734 58.0754C53.916 57.913 54.0853 57.8318 54.2813 57.8318C54.4358 57.8318 54.5615 57.8837 54.6585 57.9875C54.7556 58.0916 54.8041 58.21 54.8041 58.3427C54.8041 58.4397 54.7787 58.511 54.728 58.5566C54.6777 58.6021 54.5942 58.6259 54.4773 58.6278L53.8774 58.6486ZM57.5717 57.5912C57.5717 57.6526 57.5515 57.6992 57.5111 57.7308C57.4703 57.7625 57.4212 57.7784 57.3638 57.7784C57.3064 57.7784 57.2569 57.7675 57.2153 57.7457C57.2173 57.7279 57.2183 57.71 57.2183 57.6922C57.2183 57.6209 57.1921 57.558 57.1398 57.5033C57.0872 57.4491 56.9994 57.4219 56.8767 57.4219C56.7064 57.4219 56.5585 57.4986 56.4329 57.6518C56.307 57.8055 56.244 58.0203 56.244 58.2964C56.244 58.5728 56.304 58.7803 56.424 58.9189C56.5436 59.0575 56.7094 59.1268 56.9212 59.1268C57.0381 59.1268 57.1486 59.1015 57.2527 59.0508C57.3565 59.0005 57.44 58.9407 57.5034 58.8714C57.5509 58.8853 57.5747 58.9259 57.5747 58.9932C57.5747 59.0803 57.502 59.1714 57.3567 59.2664C57.2109 59.3615 57.0381 59.409 56.8381 59.409C56.5608 59.409 56.3367 59.3134 56.1656 59.1221C55.9941 58.9312 55.9084 58.6688 55.9084 58.335C55.9084 58.0015 56.004 57.7308 56.1953 57.5229C56.3862 57.315 56.6302 57.2111 56.9272 57.2111C57.1074 57.2111 57.2598 57.2481 57.3846 57.3221C57.5093 57.3966 57.5717 57.4863 57.5717 57.5912ZM58.935 58.1716C58.8519 58.0679 58.7483 58.016 58.6244 58.016C58.5008 58.016 58.4063 58.0615 58.341 58.1526C58.2757 58.2437 58.243 58.3744 58.243 58.5447C58.243 58.7882 58.2856 58.9629 58.3707 59.0686C58.4558 59.1748 58.5598 59.2278 58.6826 59.2278C58.8053 59.2278 58.8988 59.1813 58.963 59.0882C59.0275 58.9952 59.0598 58.8645 59.0598 58.6962C59.0598 58.4506 59.0182 58.2758 58.935 58.1716ZM57.9281 58.6201C57.9281 58.3698 57.9974 58.1758 58.136 58.038C58.2747 57.9005 58.4463 57.8318 58.6511 57.8318C58.8562 57.8318 59.0281 57.9011 59.1667 58.0397C59.3053 58.1784 59.3746 58.3724 59.3746 58.6219C59.3746 58.8714 59.3053 59.0649 59.1667 59.2023C59.0281 59.3401 58.8568 59.409 58.6529 59.409C58.4489 59.409 58.277 59.3401 58.1372 59.2023C57.9978 59.0649 57.9281 58.8708 57.9281 58.6201ZM61.0736 58.3516V59.1625C61.0736 59.2338 61.1013 59.2813 61.1568 59.3051C61.1053 59.3744 61.0419 59.409 60.9667 59.409C60.832 59.409 60.7647 59.3258 60.7647 59.1595V58.3813C60.7647 58.1892 60.6805 58.0932 60.5122 58.0932C60.4231 58.0932 60.3384 58.1308 60.258 58.2061C60.178 58.2813 60.1221 58.3833 60.0904 58.512V59.1625C60.0904 59.2338 60.1182 59.2813 60.1736 59.3051C60.1221 59.3744 60.0588 59.409 59.9835 59.409C59.8489 59.409 59.7815 59.3258 59.7815 59.1595V58.0813C59.7815 58.012 59.7538 57.9635 59.6984 57.9358C59.7499 57.8665 59.8132 57.8318 59.8885 57.8318C60.0231 57.8318 60.0904 57.916 60.0904 58.0843V58.1823C60.1419 58.0754 60.2152 57.9902 60.3102 57.9269C60.4053 57.8635 60.5162 57.8318 60.6429 57.8318C60.7696 57.8318 60.873 57.8754 60.953 57.9625C61.0334 58.0496 61.0736 58.1793 61.0736 58.3516ZM62.8729 58.3516V59.1625C62.8729 59.2338 62.9007 59.2813 62.9561 59.3051C62.9046 59.3744 62.8413 59.409 62.766 59.409C62.6314 59.409 62.564 59.3258 62.564 59.1595V58.3813C62.564 58.1892 62.4799 58.0932 62.3116 58.0932C62.2225 58.0932 62.1379 58.1308 62.0579 58.2061C61.9775 58.2813 61.9215 58.3833 61.8898 58.512V59.1625C61.8898 59.2338 61.9175 59.2813 61.973 59.3051C61.9215 59.3744 61.8581 59.409 61.7829 59.409C61.6482 59.409 61.5809 59.3258 61.5809 59.1595V58.0813C61.5809 58.012 61.5532 57.9635 61.4977 57.9358C61.5492 57.8665 61.6126 57.8318 61.6878 57.8318C61.8225 57.8318 61.8898 57.916 61.8898 58.0843V58.1823C61.9413 58.0754 62.0146 57.9902 62.1096 57.9269C62.2046 57.8635 62.3155 57.8318 62.4423 57.8318C62.569 57.8318 62.6726 57.8754 62.7529 57.9625C62.8329 58.0496 62.8729 58.1793 62.8729 58.3516ZM63.5917 58.4912L64.0759 58.4467C64.1531 58.4407 64.1917 58.3962 64.1917 58.313C64.1917 58.2298 64.1695 58.1609 64.1252 58.1063C64.0804 58.052 64.0175 58.0249 63.9363 58.0249C63.8551 58.0249 63.7814 58.0655 63.7153 58.1467C63.6488 58.2279 63.6076 58.3427 63.5917 58.4912ZM63.5828 58.6486C63.5848 58.8288 63.626 58.9619 63.7064 59.0478C63.7864 59.1342 63.9002 59.1773 64.048 59.1773C64.1953 59.1773 64.3244 59.1219 64.4353 59.011C64.4689 59.0288 64.4858 59.0595 64.4858 59.1031C64.4858 59.1763 64.4353 59.2456 64.3343 59.311C64.2333 59.3763 64.1145 59.409 63.9779 59.409C63.764 59.409 63.5917 59.3451 63.461 59.2171C63.3304 59.0896 63.265 58.908 63.265 58.6724C63.265 58.4368 63.3363 58.2378 63.4789 58.0754C63.6214 57.913 63.7907 57.8318 63.9868 57.8318C64.1412 57.8318 64.267 57.8837 64.364 57.9875C64.461 58.0916 64.5095 58.21 64.5095 58.3427C64.5095 58.4397 64.4844 58.511 64.4341 58.5566C64.3834 58.6021 64.2996 58.6259 64.1828 58.6278L63.5828 58.6486ZM65.9679 58.1378C65.9679 58.1932 65.9511 58.2362 65.9174 58.2667C65.8837 58.2976 65.8416 58.313 65.7909 58.313C65.7406 58.313 65.6986 58.3011 65.6649 58.2774C65.6709 58.2576 65.6739 58.2273 65.6739 58.1865C65.6739 58.1461 65.6574 58.11 65.6245 58.0784C65.5921 58.0467 65.5432 58.0308 65.4778 58.0308C65.3709 58.0308 65.2753 58.0853 65.1909 58.1942C65.1069 58.3031 65.065 58.4471 65.065 58.6261C65.065 58.8055 65.1059 58.9407 65.1879 59.0318C65.2703 59.1229 65.3729 59.1684 65.4956 59.1684C65.662 59.1684 65.7996 59.114 65.9085 59.0051C65.9382 59.0209 65.9531 59.0526 65.9531 59.1001C65.9531 59.1754 65.902 59.2456 65.7998 59.311C65.698 59.3763 65.5798 59.409 65.4451 59.409C65.2471 59.409 65.0828 59.3447 64.9521 59.2159C64.8214 59.0872 64.7561 58.9061 64.7561 58.6724C64.7561 58.4387 64.8303 58.2401 64.9788 58.0766C65.1273 57.9134 65.3115 57.8318 65.5313 57.8318C65.658 57.8318 65.7624 57.8609 65.8443 57.9192C65.9267 57.9778 65.9679 58.0506 65.9679 58.1378ZM66.7105 58.0784H66.6748V58.9783C66.6748 59.0496 66.6881 59.1005 66.7146 59.131C66.7415 59.1619 66.7857 59.1773 66.8471 59.1773C66.9679 59.1773 67.0788 59.1268 67.1798 59.0259C67.2233 59.0338 67.2451 59.0694 67.2451 59.1328C67.2451 59.1961 67.1999 59.2581 67.1097 59.3187C67.0198 59.3789 66.9089 59.409 66.777 59.409C66.6455 59.409 66.5435 59.3748 66.4711 59.3062C66.399 59.2381 66.3629 59.1367 66.3629 59.0021V58.0784C66.2818 58.0764 66.2224 58.0629 66.1847 58.038C66.1471 58.0134 66.1283 57.9813 66.1283 57.9417C66.1283 57.9021 66.1431 57.8714 66.1728 57.8496C66.2283 57.8576 66.2808 57.8615 66.3303 57.8615H66.3629V57.6655C66.3629 57.5942 66.3352 57.5467 66.2798 57.5229C66.3273 57.4536 66.3897 57.419 66.4669 57.419C66.6055 57.419 66.6748 57.5021 66.6748 57.6685V57.8615H67.156C67.1679 57.8794 67.1738 57.8972 67.1738 57.915C67.1738 58.0239 67.0194 58.0784 66.7105 58.0784Z"
                                          fill="white"/>
                                </g>
                            </g>
                        </g>
                    </g>
                    <g clip-path="url(#clip10_17_271)">
                        <g clip-path="url(#clip11_17_271)">
                            <path d="M33.6529 54.9157H31.8146C31.7838 54.7524 31.7462 54.5926 31.7053 54.4334L34.9837 52.7945C35.3212 52.6258 35.4571 52.2152 35.2891 51.8777C35.1196 51.5402 34.7111 51.405 34.3723 51.5723L31.2448 53.1354C30.052 50.5613 27.4499 48.7673 24.4304 48.7673C20.7537 48.7673 17.6911 51.4234 17.0462 54.9157H15.2079C14.2665 54.9157 13.5 55.6815 13.5 56.6236C13.5 56.9583 13.623 57.2814 13.845 57.5315L16.2326 60.2176V60.7225C16.2326 61.6645 16.9991 62.4303 17.9405 62.4303H30.9203C31.8624 62.4303 32.6282 61.6645 32.6282 60.7225V60.2176L35.0151 57.5315C35.2378 57.2814 35.3608 56.9583 35.3608 56.6236C35.3608 55.6815 34.595 54.9157 33.6529 54.9157ZM31.1246 54.9157H30.7406L31.0809 54.7449C31.0938 54.8023 31.1123 54.8576 31.1246 54.9157ZM24.4304 49.4505C27.1828 49.4505 29.554 51.09 30.6348 53.4408L30.0261 53.7448C29.0587 51.6168 26.9205 50.1336 24.4304 50.1336C21.5051 50.1336 19.0615 52.1783 18.4392 54.9157H17.7369C18.3715 51.8012 21.1315 49.4505 24.4304 49.4505ZM27.5565 54.9157C27.0284 53.7113 25.8274 52.8662 24.4304 52.8662C23.0334 52.8662 21.8331 53.7113 21.3043 54.9157H20.5706C21.1349 53.3267 22.6494 52.1831 24.4304 52.1831C26.1144 52.1831 27.5647 53.2051 28.1932 54.6609L27.6849 54.9157H27.5565ZM24.4304 54.2325C23.8272 54.2325 23.2895 54.4996 22.9138 54.9157H22.0776C22.5517 54.1034 23.4234 53.5494 24.4304 53.5494C25.4367 53.5494 26.3091 54.1034 26.7825 54.9157H25.9456C25.5713 54.4996 25.0336 54.2325 24.4304 54.2325ZM24.4304 51.4999C22.2682 51.4999 20.4394 52.9427 19.8499 54.9157H19.1449C19.7542 52.5629 21.8891 50.8168 24.4304 50.8168C26.6479 50.8168 28.5587 52.1476 29.414 54.0508L28.8039 54.3555C28.0606 52.677 26.3808 51.4999 24.4304 51.4999ZM31.2619 59.6977V60.7225C31.2619 60.911 31.1082 61.064 30.9203 61.064H17.9405C17.7519 61.064 17.5989 60.911 17.5989 60.7225V59.6977L14.8663 56.6236C14.8663 56.435 15.0193 56.282 15.2079 56.282H16.9157H17.5989H18.282H18.9652H19.6483H20.3315H21.0146H21.6978H22.3809H26.4798H27.163H27.8461H28.5293H29.2124H29.8956H30.5787H31.2619H31.945H33.6529C33.8408 56.282 33.9945 56.435 33.9945 56.6236L31.2619 59.6977Z"
                                  fill="white"/>
                            <path d="M18.9496 48.5707C18.9516 48.5748 18.953 48.5789 18.955 48.583H18.9564C19.0131 48.6923 19.1265 48.7674 19.259 48.7674C19.4483 48.7674 19.602 48.613 19.602 48.4238C19.602 48.3944 19.5972 48.3657 19.5897 48.3384C19.5911 48.3336 19.5911 48.3295 19.5897 48.3247C19.3335 47.7222 19.5767 47.0609 19.8759 46.3491C20.1991 45.5798 20.5454 44.7259 20.1642 43.8576C20.1157 43.7326 19.9948 43.6438 19.8527 43.6438C19.6676 43.6438 19.518 43.7941 19.518 43.9785C19.518 44.0195 19.5262 44.0578 19.5398 44.094C19.5398 44.0954 19.5398 44.0967 19.5405 44.0981C19.5412 44.1001 19.5419 44.1022 19.5426 44.1042C19.5439 44.107 19.5446 44.1097 19.546 44.1124C19.822 44.7334 19.5548 45.3701 19.2536 46.0888C18.9352 46.8464 18.5827 47.686 18.9373 48.542C18.9414 48.5522 18.9448 48.5611 18.9496 48.5707Z"
                                  fill="white"/>
                            <path d="M27.2682 48.4709C27.2709 48.475 27.2723 48.4791 27.2737 48.4832H27.275C27.3324 48.5925 27.4458 48.6683 27.5777 48.6683C27.7669 48.6683 27.922 48.5139 27.922 48.3247C27.922 48.2953 27.9165 48.2666 27.9097 48.2393C27.911 48.2345 27.911 48.2304 27.9083 48.2256C27.6535 47.6231 27.896 46.9618 28.1952 46.2499C28.5184 45.4807 28.8647 44.6268 28.4835 43.7585C28.4343 43.6328 28.3141 43.5447 28.1713 43.5447C27.9869 43.5447 27.8366 43.695 27.8366 43.8794C27.8366 43.9204 27.8461 43.9587 27.8591 43.9949C27.8591 43.9962 27.8591 43.9976 27.8591 43.999C27.8605 44.001 27.8605 44.0031 27.8619 44.0051C27.8632 44.0079 27.8646 44.0106 27.8646 44.0133C28.1406 44.6343 27.8742 45.271 27.5722 45.9897C27.2545 46.7473 26.9027 47.5876 27.2573 48.4435C27.2607 48.4524 27.2641 48.462 27.2682 48.4709Z"
                                  fill="white"/>
                            <path d="M23.7603 45.4965C23.7623 45.5006 23.7637 45.5047 23.7657 45.5088H23.7671C23.8245 45.6181 23.9379 45.6939 24.0697 45.6939C24.259 45.6939 24.4127 45.5395 24.4127 45.3503C24.4127 45.3209 24.4079 45.2922 24.4004 45.2649C24.4018 45.2601 24.4018 45.256 24.4004 45.2512C24.1442 44.6487 24.3874 43.9874 24.6866 43.2755C25.0098 42.5063 25.3561 41.6524 24.9749 40.7841C24.9257 40.6584 24.8055 40.5696 24.6627 40.5696C24.4783 40.5696 24.328 40.7199 24.328 40.9043C24.328 40.9453 24.3362 40.9836 24.3498 41.0198C24.3498 41.0211 24.3498 41.0225 24.3505 41.0239C24.3512 41.0259 24.3519 41.028 24.3526 41.03C24.3533 41.0328 24.3546 41.0355 24.3553 41.0382C24.6313 41.6592 24.3642 42.2959 24.0629 43.0146C23.7446 43.7722 23.3921 44.6125 23.7473 45.4684C23.7521 45.478 23.7555 45.4869 23.7603 45.4965Z"
                                  fill="white"/>
                        </g>
                    </g>
                </g>
            </g>
        </g>
    </g>
    <defs>
        <clipPath id="clip0_17_271">
            <rect width="90" height="101.25" fill="white" transform="translate(0 0.875)"/>
        </clipPath>
        <clipPath id="clip1_17_271">
            <rect width="90" height="101.25" fill="white" transform="translate(0 0.875)"/>
        </clipPath>
        <clipPath id="clip2_17_271">
            <rect width="63" height="21.8608" fill="white" transform="translate(13.5 40.5696)"/>
        </clipPath>
        <clipPath id="clip3_17_271">
            <rect width="63" height="21.8608" fill="white" transform="translate(13.5 40.5696)"/>
        </clipPath>
        <clipPath id="clip4_17_271">
            <rect width="38.558" height="15.8182" fill="white" transform="translate(37.9419 43.5908)"/>
        </clipPath>
        <clipPath id="clip5_17_271">
            <rect width="38.558" height="15.8182" fill="white" transform="translate(37.9419 43.5908)"/>
        </clipPath>
        <clipPath id="clip6_17_271">
            <rect width="38.558" height="10.9325" fill="white" transform="translate(37.9419 43.5908)"/>
        </clipPath>
        <clipPath id="clip7_17_271">
            <rect width="38.558" height="10.9325" fill="white" transform="translate(37.9419 43.5908)"/>
        </clipPath>
        <clipPath id="clip8_17_271">
            <rect width="29.3041" height="2.30488" fill="white" transform="translate(37.9419 57.1041)"/>
        </clipPath>
        <clipPath id="clip9_17_271">
            <rect width="29.3041" height="2.30488" fill="white" transform="translate(37.9419 57.1041)"/>
        </clipPath>
        <clipPath id="clip10_17_271">
            <rect width="21.8611" height="21.8608" fill="white" transform="translate(13.5 40.5696)"/>
        </clipPath>
        <clipPath id="clip11_17_271">
            <rect width="21.8611" height="21.8608" fill="white" transform="translate(13.5 40.5696)"/>
        </clipPath>
    </defs>
</svg>
